<svg width="64" height="66" viewBox="0 0 64 66" fill="none" xmlns="http://www.w3.org/2000/svg">
<rect width="64" height="66" fill="#090909"/>
<path d="M57.67 29.5075L50.3108 26.7812C49.6834 24.0066 48.1151 22.4143 48.1151 22.4143C44.158 18.4576 37.7639 18.4576 33.8068 22.4143L30.2358 25.985L14.2386 9C11.8257 18.6506 14.2386 28.3011 20.1501 36.0699L7 48.8086C7 48.8086 28.4503 53.6339 40.9489 43.8627C47.6084 38.6514 49.1044 35.6115 50.0454 32.4026L57.67 29.5075ZM44.906 30.0383C43.965 30.9792 42.4207 30.9792 41.4797 30.0383C40.5387 29.0973 40.5387 27.5774 41.4797 26.6364C42.4207 25.6955 43.965 25.6955 44.906 26.6364C45.847 27.5774 45.847 29.0973 44.906 30.0383Z" fill="#FAF205"/>
<path d="M57.67 29.5075L50.3108 26.7812C49.6834 24.0066 48.1151 22.4143 48.1151 22.4143C44.158 18.4576 37.7639 18.4576 33.8068 22.4143L30.2358 25.985L14.2386 9C11.8257 18.6506 14.2386 28.3011 20.1501 36.0699L7 48.8086C7 48.8086 28.4503 53.6339 40.9489 43.8627C47.6084 38.6514 49.1044 35.6115 50.0454 32.4026L57.67 29.5075ZM44.906 30.0383C43.965 30.9792 42.4207 30.9792 41.4797 30.0383C40.5387 29.0973 40.5387 27.5774 41.4797 26.6364C42.4207 25.6955 43.965 25.6955 44.906 26.6364C45.847 27.5774 45.847 29.0973 44.906 30.0383Z" fill="#FAF205"/>
</svg>
