<svg width="38" height="38" viewBox="0 0 38 38" fill="none" xmlns="http://www.w3.org/2000/svg">
<rect width="38" height="38" rx="2" fill="#CED4DA"/>
<path d="M26.3332 27.25V25.4167C26.3332 24.4442 25.9469 23.5116 25.2592 22.8239C24.5716 22.1363 23.639 21.75 22.6665 21.75H15.3332C14.3607 21.75 13.4281 22.1363 12.7404 22.8239C12.0528 23.5116 11.6665 24.4442 11.6665 25.4167V27.25" stroke="black" stroke-width="1.25" stroke-linecap="round" stroke-linejoin="round"/>
<path d="M19.0002 18.0833C21.0252 18.0833 22.6668 16.4417 22.6668 14.4167C22.6668 12.3916 21.0252 10.75 19.0002 10.75C16.9751 10.75 15.3335 12.3916 15.3335 14.4167C15.3335 16.4417 16.9751 18.0833 19.0002 18.0833Z" stroke="black" stroke-width="1.25" stroke-linecap="round" stroke-linejoin="round"/>
</svg>
