<svg width="14" height="16" viewBox="0 0 14 16" fill="none" xmlns="http://www.w3.org/2000/svg">
<path d="M12.0335 6.7375H11.3115V4.57188C11.3115 2.05133 9.25975 0 6.73874 0C4.21773 0 2.16602 2.05133 2.16602 4.57188V6.7375H1.44402C0.646799 6.7375 0 7.38418 0 8.18125V13.9563C0 14.7533 0.646799 15.4 1.44402 15.4H12.0335C12.8307 15.4 13.4775 14.7533 13.4775 13.9563V8.18125C13.4775 7.38418 12.8307 6.7375 12.0335 6.7375ZM8.90476 6.7375H4.57272V4.57188C4.57272 3.37777 5.54442 2.40625 6.73874 2.40625C7.93306 2.40625 8.90476 3.37777 8.90476 4.57188V6.7375Z" fill="black"/>
</svg>
